<?xml version="1.0" standalone="no"?>
<!DOCTYPE svg PUBLIC "-//W3C//DTD SVG 20010904//EN"
 "http://www.w3.org/TR/2001/REC-SVG-20010904/DTD/svg10.dtd">
<svg version="1.0" xmlns="http://www.w3.org/2000/svg"
 width="1280.000000pt" height="853.000000pt" viewBox="0 0 1280.000000 853.000000"
 preserveAspectRatio="xMidYMid meet">

<g transform="translate(0.000000,853.000000) scale(0.100000,-0.100000)"
fill="#000000" stroke="none">
<path d="M6476 7609 c-49 -5 -136 -20 -192 -34 -381 -91 -622 -302 -758 -661
-38 -101 -74 -138 -168 -173 -178 -66 -282 -161 -348 -317 l-26 -63 -28 30
-29 30 26 48 c14 26 29 67 33 92 4 26 21 63 40 90 39 53 41 65 17 98 -16 24
-15 25 28 64 206 189 448 428 467 461 12 22 22 52 22 66 0 59 -116 193 -183
211 -70 19 -113 -12 -401 -290 l-259 -249 -24 29 c-41 49 -124 37 -182 -25
-14 -14 -31 -26 -39 -26 -43 0 -100 -65 -116 -132 -4 -19 -14 -28 -35 -33 -75
-16 -119 -133 -72 -195 l21 -29 -70 -63 c-64 -58 -77 -76 -147 -215 -71 -139
-76 -154 -62 -169 14 -14 23 -14 95 0 43 9 126 25 183 36 82 16 109 25 127 45
27 30 41 31 73 6 23 -18 23 -19 6 -45 -16 -24 -17 -33 -5 -84 39 -181 129
-366 263 -544 59 -78 225 -245 293 -294 l42 -30 -36 -39 c-20 -22 -37 -34 -40
-27 -2 7 -23 38 -47 70 -114 156 -462 334 -725 372 -85 13 -252 13 -284 0 -14
-5 -26 -16 -26 -24 0 -8 -10 -18 -22 -22 -13 -4 -36 -17 -51 -30 -16 -13 -40
-24 -53 -24 -17 0 -27 -8 -35 -27 -14 -37 -38 -52 -81 -53 -50 0 -68 -9 -68
-32 0 -29 112 -467 166 -648 25 -85 71 -232 103 -326 l57 -171 -65 -7 c-36 -4
-74 -8 -84 -9 -15 -2 -22 11 -37 68 -26 100 -43 135 -87 176 -75 72 -179 107
-347 116 -113 6 -114 6 -120 32 -3 14 -25 53 -50 86 -25 33 -46 64 -46 68 0
15 44 67 57 67 21 0 35 37 23 60 -14 25 -47 25 -85 0 -41 -27 -62 -25 -79 8
-8 15 -25 39 -40 55 -40 43 -72 36 -147 -29 -35 -30 -95 -71 -134 -90 l-70
-34 -102 21 c-73 15 -107 18 -120 11 -10 -6 -34 -36 -53 -68 -26 -42 -44 -60
-68 -68 -51 -18 -55 -31 -36 -125 3 -13 55 -74 117 -135 62 -61 123 -124 136
-140 25 -28 57 -32 101 -12 11 4 23 -3 39 -24 22 -31 22 -32 5 -82 -22 -68
-33 -215 -22 -303 6 -47 22 -97 48 -152 39 -83 115 -177 151 -188 27 -9 24
-24 -11 -55 -45 -41 -68 -102 -75 -210 -9 -126 12 -185 92 -264 39 -38 52 -57
42 -60 -101 -30 -175 -63 -210 -95 -38 -33 -42 -42 -47 -92 -3 -44 0 -65 18
-100 40 -77 161 -183 314 -274 15 -9 13 -15 -18 -58 -107 -150 -101 -362 12
-437 107 -71 237 -74 667 -16 99 14 263 34 365 46 102 11 219 25 260 30 137
18 791 69 1010 80 1025 48 2099 36 2880 -35 85 -7 193 -16 240 -20 47 -3 144
-12 215 -20 72 -8 198 -22 280 -30 170 -18 310 -35 540 -66 214 -29 502 -32
558 -6 114 53 161 152 137 291 -10 60 -59 177 -87 208 -9 10 -14 20 -12 22 2
2 42 28 89 58 144 94 239 200 255 288 13 74 -42 149 -131 180 l-31 11 38 72
c20 40 64 124 97 187 33 63 66 116 73 117 8 2 23 -12 34 -29 27 -43 50 -56 73
-42 17 12 22 63 9 94 -5 11 8 25 43 48 98 64 160 186 160 316 l0 69 24 -22
c17 -16 32 -22 48 -18 54 14 72 106 38 198 -16 44 -19 64 -11 72 26 26 5 77
-31 77 -9 0 -22 9 -28 21 -18 32 -67 47 -209 64 -184 21 -231 33 -269 66 -24
22 -43 29 -72 29 l-40 0 0 58 c0 31 6 77 14 102 11 37 18 46 40 48 60 7 53 76
-9 88 -41 7 -75 48 -75 90 0 43 21 89 44 100 32 14 33 51 2 65 -14 7 -28 21
-32 31 -10 33 -8 101 6 157 10 44 17 55 41 63 15 5 31 18 34 27 11 37 -5 49
-85 67 -72 15 -79 19 -82 43 -2 17 -13 30 -30 39 -26 12 -28 17 -28 81 0 89
24 161 54 161 43 0 64 50 29 69 -40 20 -458 119 -723 171 -85 16 -156 34 -158
38 -1 5 -14 24 -28 43 l-25 34 58 12 c88 19 185 56 197 76 15 23 -3 51 -36 55
-17 2 -42 -10 -78 -39 -44 -35 -64 -43 -106 -47 -49 -4 -124 19 -124 38 0 4
26 13 58 19 190 37 312 194 312 404 0 68 0 68 26 65 21 -2 29 -12 42 -53 39
-116 179 -130 233 -23 40 79 12 183 -73 265 -83 81 -191 104 -305 65 l-51 -18
-59 56 c-79 77 -154 130 -251 179 -136 68 -320 121 -423 121 -38 0 -40 2 -63
53 -77 175 -269 245 -405 146 -127 -91 -102 -283 41 -305 21 -4 38 -9 38 -11
0 -2 -16 -21 -36 -41 -19 -20 -47 -59 -61 -86 l-25 -49 -56 114 c-69 139 -130
226 -237 338 -158 165 -348 287 -560 359 -227 78 -463 104 -709 81z m-1111
-112 c-11 -7 -47 -38 -79 -70 -58 -56 -60 -57 -78 -39 -19 18 -18 20 28 58 56
45 89 62 124 63 24 0 24 -1 5 -12z m1030 -62 c319 -29 544 -66 730 -121 213
-62 299 -96 370 -145 231 -160 302 -420 225 -825 -35 -185 -46 -281 -35 -320
l7 -29 19 25 c118 149 253 199 374 139 93 -47 139 -131 138 -254 -2 -149 -82
-274 -221 -342 -73 -36 -80 -38 -177 -38 -93 0 -105 2 -167 33 -64 31 -69 32
-97 18 -88 -46 -273 -97 -456 -126 -264 -42 -737 -36 -810 11 -16 10 -41 24
-55 31 -14 7 -27 13 -29 15 -2 1 7 17 21 35 95 128 62 284 -76 355 -41 22 -64
27 -122 27 -61 -1 -78 -5 -120 -30 -96 -59 -149 -182 -124 -291 6 -29 16 -55
21 -58 5 -4 9 -10 9 -16 0 -36 -260 39 -410 119 -258 137 -381 315 -382 552 0
77 5 109 26 168 24 70 93 179 133 213 53 44 150 93 258 129 123 43 167 66 108
58 -32 -4 -32 -4 -18 21 8 14 36 78 63 141 48 116 133 260 174 296 21 19 21
19 14 -1 -50 -130 30 -190 141 -105 92 69 129 84 213 84 92 0 114 -11 197 -95
53 -54 67 -63 97 -63 24 0 44 8 61 24 21 20 25 32 25 80 0 101 -79 214 -187
266 -56 28 -68 40 -30 31 12 -3 54 -8 92 -12z m-121 -22 c22 -9 57 -27 76 -41
40 -28 36 -27 -45 13 -56 28 -68 30 -172 30 -100 0 -109 1 -80 12 41 16 164 8
221 -14z m-962 -100 c26 -26 48 -54 48 -63 -1 -10 -7 -8 -21 10 -12 14 -36 42
-55 63 -49 53 -29 46 28 -10z m-159 -113 c27 -24 64 -66 83 -94 l35 -51 -36
-32 c-42 -39 -53 -41 -61 -9 -3 14 -46 64 -95 111 -49 47 -89 88 -89 91 0 3
14 18 32 34 31 29 32 29 57 11 14 -11 48 -38 74 -61z m3165 4 c20 -8 50 -27
65 -42 29 -28 87 -121 87 -140 0 -6 -16 -14 -35 -17 -108 -16 -99 -18 -119 19
-18 33 -39 49 -83 61 -28 8 -31 -11 -3 -20 20 -6 70 -60 70 -75 0 -16 -101
-60 -136 -60 -110 0 -173 119 -111 211 46 71 174 101 265 63z m-3264 -75 c90
-83 97 -97 60 -123 -16 -12 -94 -79 -174 -151 -175 -157 -252 -224 -390 -339
-58 -49 -124 -106 -147 -127 -37 -34 -45 -38 -65 -28 -13 6 -32 25 -43 42 -14
21 -34 37 -63 45 -23 8 -42 17 -42 21 0 7 93 90 116 104 6 4 26 -1 44 -9 47
-24 123 -14 159 20 19 18 38 26 63 26 78 0 115 40 90 96 -11 23 -11 23 31 18
34 -5 47 -2 70 16 36 29 36 72 -3 145 -16 31 -30 62 -30 69 -1 14 231 236 246
236 6 0 41 -28 78 -61z m-394 -111 c11 -12 20 -28 20 -36 0 -7 16 -47 35 -89
40 -86 43 -108 16 -122 -46 -25 -129 32 -168 115 -9 18 -20 31 -25 28 -18 -11
17 -100 57 -144 28 -30 39 -63 30 -90 -5 -16 -15 -20 -48 -20 -24 0 -54 7 -67
17 -45 30 -97 93 -110 134 -12 34 -11 44 3 74 22 45 59 69 97 61 26 -5 30 -3
30 18 0 27 27 54 66 66 42 12 41 12 64 -12z m510 -43 c0 -21 -191 -185 -216
-185 -58 0 -134 -66 -134 -117 0 -31 -9 -40 -210 -205 -25 -20 -87 -71 -138
-112 l-92 -77 -11 28 c-10 26 -8 30 27 58 57 46 364 304 378 318 7 6 50 46 96
87 46 41 127 114 180 162 83 76 97 84 108 70 6 -9 12 -21 12 -27z m3555 -24
c277 -73 505 -235 604 -431 64 -125 65 -239 4 -361 -67 -135 -188 -195 -383
-192 -124 1 -215 19 -348 69 -187 70 -325 160 -428 281 -71 82 -77 97 -99 238
-18 122 -13 151 38 231 52 83 171 161 281 184 66 14 242 4 331 -19z m-4333
-208 c39 -58 47 -66 76 -82 12 -6 22 -18 22 -26 0 -50 -169 -44 -205 8 -24 34
-19 94 10 122 36 37 59 32 97 -22z m612 -16 c16 -12 15 -16 -17 -64 -19 -28
-37 -70 -41 -94 -9 -55 -57 -137 -99 -167 -79 -57 -76 -53 -35 -50 51 3 56 -7
22 -43 -46 -49 -184 -109 -250 -109 -38 0 -37 28 2 45 32 13 94 55 82 55 -3 0
-25 -7 -48 -15 -52 -18 -110 -19 -134 -2 -15 11 -7 20 78 90 52 42 97 77 100
77 3 0 6 -9 6 -19 0 -52 36 -73 38 -22 1 45 36 104 88 150 33 29 53 56 63 89
25 72 99 113 145 79z m4545 -87 c55 -28 126 -110 141 -164 24 -86 -12 -161
-82 -173 -32 -5 -41 -1 -68 25 -26 26 -30 38 -30 84 0 68 -26 98 -94 105 -41
5 -49 10 -76 51 -16 25 -30 51 -30 57 0 36 176 48 239 15z m-93 -167 c17 -17
17 -18 -10 -21 -36 -4 -56 4 -56 23 0 21 44 19 66 -2z m-5236 -52 c35 -15 46
-25 50 -47 4 -20 13 -30 30 -34 20 -5 26 -14 32 -50 4 -26 4 -46 -2 -50 -5 -3
-49 -12 -97 -19 -73 -11 -88 -11 -92 0 -2 8 -17 26 -32 41 l-27 27 36 76 c19
41 40 75 46 74 6 0 31 -8 56 -18z m3892 -79 c9 -15 30 -43 47 -62 45 -51 41
-60 -21 -44 -29 8 -55 17 -58 21 -8 10 0 113 9 113 4 0 14 -13 23 -28z m-4012
-111 c11 -22 8 -25 -32 -35 -32 -7 -32 -6 -16 29 13 30 33 32 48 6z m4179 -60
c41 -36 42 -39 22 -46 -32 -10 -85 24 -89 58 -5 37 14 34 67 -12z m-119 19 c0
-5 -2 -10 -4 -10 -3 0 -8 5 -11 10 -3 6 -1 10 4 10 6 0 11 -4 11 -10z m210
-96 c0 -36 -102 -48 -120 -14 -10 19 -9 20 28 14 28 -4 41 -2 51 9 14 18 41
12 41 -9z m113 -45 c84 -43 211 -85 302 -100 l75 -13 32 -65 c29 -61 32 -64
36 -37 3 27 6 28 40 22 72 -12 114 -28 145 -56 18 -15 29 -32 24 -36 -4 -4
-53 2 -110 14 -139 29 -279 46 -320 38 -55 -10 -119 -74 -156 -156 -31 -66
-33 -77 -29 -158 2 -55 9 -99 20 -119 l16 -33 -42 0 c-27 0 -61 -10 -91 -25
l-48 -26 -28 33 c-15 18 -28 36 -29 40 0 13 -105 85 -171 118 -35 18 -66 34
-68 36 -2 2 9 14 25 28 60 50 71 62 102 104 28 39 31 41 34 20 2 -18 14 -4 52
64 27 48 64 106 84 128 19 23 32 44 28 47 -11 11 -104 -94 -136 -154 -31 -57
-31 -56 -3 22 9 24 15 79 15 137 l1 97 39 6 c22 4 51 18 66 31 15 13 28 24 30
24 1 0 31 -14 65 -31z m882 -109 c0 -10 -12 -16 -32 -18 -35 -3 -41 6 -21 26
17 17 53 11 53 -8z m-357 -35 l37 -26 -45 7 c-58 9 -90 21 -90 34 0 19 61 10
98 -15z m-63 -152 c72 -14 159 -29 195 -34 36 -5 108 -17 160 -28 52 -11 115
-23 140 -26 43 -7 151 -31 425 -97 120 -28 177 -47 148 -48 -15 0 -257 56
-298 69 -16 5 -67 17 -113 27 -78 16 -84 16 -122 -1 -48 -22 -104 -99 -121
-168 -17 -71 -5 -171 26 -219 27 -40 15 -53 -16 -17 -18 21 -43 81 -53 132 -5
19 -13 27 -27 27 -20 0 -21 4 -17 49 6 58 57 167 76 163 8 -1 11 2 6 9 -3 6
-1 15 6 19 7 4 11 13 8 20 -6 18 -54 -25 -82 -73 -14 -23 -31 -72 -38 -109
-11 -59 -16 -68 -34 -68 -23 0 -174 31 -243 49 l-43 12 4 48 c6 64 41 132 91
182 37 36 39 40 17 34 -61 -15 -140 -144 -140 -226 0 -19 -5 -29 -15 -29 -18
0 -19 11 -1 75 17 66 37 103 75 140 34 33 38 45 17 45 -18 0 -71 -60 -96 -111
-12 -22 -24 -63 -27 -91 l-6 -50 -34 5 c-19 3 -66 21 -104 38 -65 30 -70 35
-66 58 12 56 41 108 85 149 24 23 42 45 38 49 -10 10 -57 -16 -78 -43 -11 -13
-23 -22 -28 -19 -11 7 -22 -24 -13 -38 3 -7 3 -9 -2 -5 -9 8 -28 -10 -38 -35
-5 -12 -3 -16 5 -11 8 5 9 2 5 -10 -4 -10 -7 -24 -7 -32 0 -11 -4 -12 -19 -5
-10 6 -21 7 -25 4 -3 -4 -3 9 0 28 14 72 66 149 122 179 42 22 57 21 257 -17z
m-4687 -178 c277 -56 615 -249 681 -391 12 -24 21 -54 21 -66 l-1 -23 -17 24
c-33 46 -106 123 -127 133 -11 6 -7 -2 12 -19 38 -34 103 -112 103 -123 0 -4
-14 -10 -30 -12 -22 -3 -43 4 -78 26 -165 109 -363 189 -622 250 -98 23 -198
37 -383 52 l-77 6 32 31 33 32 175 0 c130 0 197 -5 260 -18 89 -19 238 -64
303 -92 22 -9 44 -14 50 -12 20 6 -159 75 -265 102 -105 26 -256 44 -383 45
l-70 1 24 19 c13 11 29 20 37 20 8 0 14 7 14 15 0 21 203 21 308 0z m5280 6
c9 -5 112 -28 227 -51 116 -24 211 -44 213 -45 1 -1 -4 -22 -12 -46 -21 -66
-25 -99 -17 -151 l8 -47 -251 -3 c-138 -2 -258 -7 -267 -11 -27 -13 -44 37
-43 127 0 101 33 184 86 216 38 23 35 22 56 11z m-3955 -68 c15 -3 27 -8 27
-12 0 -6 -171 -53 -176 -48 -9 8 93 76 106 71 8 -3 27 -8 43 -11z m2536 -59
c213 -104 310 -291 329 -637 8 -134 -2 -357 -20 -467 l-13 -75 -60 -8 c-87
-12 -267 -1 -281 17 -6 8 -18 50 -27 94 -20 90 -55 137 -113 148 l-34 6 0 137
c0 257 -51 536 -106 582 -14 11 -14 8 -1 -27 49 -135 62 -199 78 -376 10 -115
9 -292 -2 -302 -2 -3 -19 -1 -38 2 l-34 7 2 90 c4 179 -35 380 -103 527 -35
75 -120 198 -136 198 -5 0 -15 10 -21 23 -11 20 -11 21 4 8 11 -9 17 -10 17
-2 0 6 5 11 11 11 6 0 9 -7 6 -15 -7 -18 9 -30 16 -13 4 9 17 1 39 -22 19 -19
38 -36 43 -38 6 -1 18 -5 28 -8 10 -3 32 0 48 6 43 18 39 54 -13 108 -39 41
-41 44 -17 39 14 -4 64 -7 112 -8 48 -1 89 -5 92 -9 3 -5 -4 -6 -15 -3 -32 8
-22 -10 23 -42 50 -36 117 -132 147 -212 47 -123 61 -225 67 -467 4 -160 9
-223 16 -211 17 31 1 435 -21 540 -25 115 -75 234 -121 288 -20 23 -43 51 -51
61 -14 18 -14 19 5 9 61 -33 131 -131 166 -231 46 -132 60 -228 66 -465 4
-156 9 -227 17 -224 18 6 24 48 25 185 3 398 -96 679 -269 765 l-50 25 38 15
c20 9 41 16 47 16 5 1 52 -20 104 -45z m-1915 7 c25 -10 65 -47 66 -62 0 -3
-80 -4 -177 -1 -186 5 -363 -8 -493 -34 -76 -16 -139 -41 -70 -29 152 28 199
35 300 44 126 11 362 1 456 -20 52 -12 94 -44 94 -71 0 -5 -53 -7 -127 -4
-370 13 -853 -69 -1106 -189 -45 -21 -58 -23 -90 -14 -41 11 -45 23 -20 59 97
140 439 293 730 329 102 12 400 7 437 -8z m1204 -35 l33 -24 -88 -4 c-70 -4
-99 -10 -140 -31 -79 -40 -182 -135 -240 -218 -47 -69 -113 -196 -113 -219 0
-5 -11 -12 -24 -16 -17 -4 -30 1 -49 20 -35 35 -108 37 -131 4 -20 -28 -20
-38 -1 -38 23 0 18 -17 -7 -23 -12 -4 -24 -4 -26 -2 -14 14 80 227 139 315 45
66 144 165 179 178 14 5 59 13 100 16 100 10 235 33 290 50 25 8 45 15 46 15
0 1 15 -10 32 -23z m-3403 -66 c336 -48 691 -181 831 -310 49 -45 77 -55 154
-54 44 0 79 11 170 52 176 78 405 136 672 168 134 17 619 26 633 12 3 -3 -3
-69 -14 -146 -12 -77 -21 -154 -21 -171 0 -22 -5 -31 -16 -31 -14 0 -15 12
-10 93 3 50 9 121 13 156 l6 64 -47 -6 c-63 -9 -66 -12 -66 -58 0 -32 3 -39
20 -39 20 0 28 -24 11 -34 -5 -4 -12 -24 -16 -46 -4 -22 -12 -40 -20 -40 -7 0
-24 -9 -38 -20 -15 -12 -49 -24 -77 -27 -27 -3 -50 -9 -50 -13 0 -3 -27 -19
-60 -34 -34 -16 -57 -32 -54 -38 4 -6 1 -9 -7 -6 -21 7 -76 -71 -75 -107 1
-16 -2 -35 -7 -41 -4 -7 -7 -16 -6 -20 2 -15 -13 -54 -21 -54 -4 0 -11 -12
-15 -27 -11 -45 -24 -53 -81 -53 -39 0 -54 -4 -54 -14 0 -17 -98 -28 -180 -19
-42 4 -60 2 -60 -6 0 -7 -27 -11 -80 -11 -47 0 -80 -4 -80 -10 0 -5 -17 -10
-38 -10 -40 0 -41 1 -75 100 -42 123 -47 155 -60 345 -1 17 1 45 5 63 7 30 6
32 -18 32 -55 0 -64 -14 -64 -98 0 -96 17 -311 35 -452 8 -57 12 -106 10 -108
-2 -2 -12 1 -23 7 -11 6 -41 12 -66 12 -39 2 -49 7 -74 38 -16 20 -32 50 -36
66 -4 17 -15 48 -25 70 -40 88 -71 207 -102 391 -13 79 -23 98 -59 109 -24 7
-24 7 -5 -9 11 -8 14 -16 8 -16 -9 0 -13 -18 -13 -56 0 -52 -2 -56 -21 -51
-15 4 -19 1 -16 -11 2 -9 9 -16 15 -15 15 4 11 -15 -8 -39 -19 -23 -90 -26
-90 -3 0 12 -16 15 -80 15 l-80 0 0 40 c0 22 -4 40 -9 40 -5 0 -23 14 -40 31
-17 17 -31 35 -31 40 0 5 -4 9 -9 9 -5 0 -23 14 -40 31 -27 27 -31 37 -31 86
l0 56 35 -6 c21 -3 33 -2 30 4 -4 5 2 9 12 9 32 0 -27 25 -115 49 -46 12 -93
19 -105 16 -15 -4 -18 -4 -8 3 10 7 4 11 -20 15 -41 6 -195 33 -264 46 -27 6
-89 15 -138 21 -71 10 -90 16 -98 33 -11 20 -10 20 102 14 63 -4 177 -16 254
-27z m4610 -59 l30 -7 -36 -16 c-28 -12 -47 -14 -85 -7 -72 14 -93 6 -89 -33
4 -29 3 -30 -10 -12 -21 28 -18 40 18 63 33 21 108 27 172 12z m-4520 -31 c13
-6 15 -9 5 -9 -8 0 -22 4 -30 9 -18 12 -2 12 25 0z m4689 -5 c45 -9 97 -20
116 -25 19 -5 78 -16 130 -26 52 -9 145 -28 205 -42 106 -25 122 -26 455 -28
281 -2 354 -5 395 -18 48 -15 42 -16 -160 -11 -115 3 -294 5 -397 6 -214 0
-225 -3 -272 -76 -53 -85 -44 -247 17 -290 14 -10 17 -15 7 -15 -26 0 -39 14
-61 65 -33 75 -31 176 6 251 20 41 24 58 16 64 -7 4 -51 13 -99 20 -48 7 -91
17 -96 21 -6 5 -19 9 -31 9 -11 0 -45 6 -75 14 -39 10 -59 11 -70 4 -8 -6 -2
1 13 16 34 31 21 34 -28 5 -41 -24 -81 -94 -91 -159 -5 -29 -9 -38 -15 -28
-16 28 45 178 71 178 6 0 10 4 10 9 0 5 -10 9 -22 9 -23 -1 -179 32 -188 39
-9 8 26 23 54 23 16 0 65 -7 110 -15z m-4511 -42 c-7 -2 -19 -2 -25 0 -7 3 -2
5 12 5 14 0 19 -2 13 -5z m105 -27 c2 -3 -14 -4 -36 -3 -26 1 -38 5 -35 13 3
9 13 10 35 3 17 -4 33 -11 36 -13z m-105 -3 c-7 -2 -19 -2 -25 0 -7 3 -2 5 12
5 14 0 19 -2 13 -5z m14 -19 c-3 -3 -12 -4 -19 -1 -8 3 -5 6 6 6 11 1 17 -2
13 -5z m2072 -45 c12 0 11 -3 -4 -9 -32 -14 -35 -12 -34 23 0 30 1 31 11 10 6
-13 18 -23 27 -24z m2474 6 c-3 -9 -8 -14 -10 -11 -3 3 -2 9 2 15 9 16 15 13
8 -4z m314 -59 c-12 -24 -24 -42 -26 -40 -6 5 33 84 41 84 4 0 -3 -20 -15 -44z
m631 -7 c183 -2 335 -6 337 -9 3 -4 -5 -34 -16 -66 -16 -46 -19 -72 -14 -119
l6 -60 -53 -2 c-179 -6 -567 -24 -644 -29 -89 -6 -92 -6 -105 17 -8 14 -14 56
-14 99 0 124 45 185 130 175 22 -2 190 -5 373 -6z m-599 -21 c-6 -12 -15 -33
-20 -47 -5 -17 -8 -20 -8 -8 -1 18 25 77 35 77 2 0 -1 -10 -7 -22z m-382 -20
c-3 -8 -6 -5 -6 6 -1 11 2 17 5 13 3 -3 4 -12 1 -19z m240 -54 c-3 -3 -12 -4
-19 -1 -8 3 -5 6 6 6 11 1 17 -2 13 -5z m58 -14 c8 -13 -5 -13 -25 0 -13 8
-13 10 2 10 9 0 20 -4 23 -10z m-6148 -22 c22 -25 156 -238 149 -238 -2 0 -22
26 -43 58 -102 151 -127 184 -147 192 l-21 9 21 0 c11 1 30 -9 41 -21z m3798
-8 c32 -12 26 -25 -16 -34 -23 -4 -38 -1 -51 11 -31 28 13 44 67 23z m-3765
-136 c39 -59 68 -109 65 -112 -8 -8 -53 37 -87 87 l-31 44 -76 -7 c-49 -5 -72
-4 -66 3 27 26 111 91 117 91 5 0 40 -48 78 -106z m140 99 c0 -18 -48 -66 -58
-59 -20 12 -13 35 16 50 31 17 42 19 42 9z m3417 -31 c26 -16 69 -43 94 -60
26 -18 52 -32 58 -32 34 0 82 -138 84 -244 1 -58 -3 -79 -23 -114 -22 -38 -28
-43 -52 -38 -16 3 -45 -3 -73 -15 -26 -11 -48 -19 -49 -17 -1 1 -13 20 -25 41
-13 21 -37 45 -53 53 -48 25 -229 40 -299 25 -32 -6 -71 -9 -86 -5 -37 9 -94
44 -88 53 2 5 71 8 152 8 151 0 203 10 203 38 0 13 -21 15 -137 16 -157 1
-225 8 -230 26 -7 21 42 33 191 49 155 17 186 25 186 50 0 16 -15 17 -168 11
-138 -5 -172 -4 -188 8 -25 18 -11 42 44 73 68 38 172 55 298 48 61 -3 114 -3
117 1 3 3 -1 12 -9 20 -12 12 -12 33 1 33 2 0 26 -13 52 -28z m2014 -22 c6 0
1 -14 -11 -30 -26 -36 -40 -31 -40 14 0 40 8 49 27 31 8 -8 19 -15 24 -15z
m-6141 -32 c-11 -12 -20 -26 -20 -32 0 -5 -2 -7 -5 -4 -10 10 15 58 30 58 13
0 12 -4 -5 -22z m6190 -8 c-12 -17 -25 -43 -29 -57 -4 -15 -13 -29 -20 -31
-11 -4 -12 4 -7 34 10 51 32 84 57 84 20 0 20 0 -1 -30z m120 11 c19 -4 46
-11 59 -16 17 -5 21 -4 16 4 -7 13 35 6 66 -10 9 -5 20 -5 24 -1 5 4 5 2 2 -4
-4 -8 10 -16 38 -23 48 -12 54 -21 30 -41 -9 -7 -20 -32 -26 -56 -6 -24 -16
-44 -23 -44 -17 0 -306 77 -312 83 -9 9 14 78 32 98 19 21 40 23 94 10z m1420
-31 c0 -6 -11 -8 -27 -4 -40 10 -41 14 -5 14 18 0 32 -5 32 -10z m-7695 -10
c3 -5 -1 -10 -10 -10 -9 0 -13 5 -10 10 3 6 8 10 10 10 2 0 7 -4 10 -10z m467
-7 c37 -47 110 -113 133 -119 14 -3 25 -10 25 -15 0 -18 -29 -8 -67 24 -74 61
-133 127 -115 127 6 0 17 -8 24 -17z m7091 10 c-23 -2 -64 -2 -90 0 -26 2 -7
3 42 3 50 0 71 -1 48 -3z m-1486 -25 c-3 -8 -6 -5 -6 6 -1 11 2 17 5 13 3 -3
4 -12 1 -19z m-6012 -8 c-16 -4 -39 -11 -50 -14 -13 -5 -12 -2 5 8 14 8 36 15
50 15 23 -1 22 -2 -5 -9z m214 6 c-8 -8 -302 -77 -313 -73 -6 2 39 16 100 31
60 15 116 31 124 36 14 9 98 14 89 6z m6381 -16 c-15 -10 -50 -90 -50 -114 0
-23 -2 -25 -26 -16 -14 6 -37 10 -51 10 -24 0 -25 2 -20 40 9 71 26 86 95 85
33 0 57 -2 52 -5z m-6188 -43 c24 -23 56 -52 72 -64 l30 -21 -31 -15 c-17 -9
-59 -27 -94 -40 -35 -14 -98 -40 -139 -59 -41 -19 -106 -47 -144 -63 -66 -28
-68 -28 -78 -9 -6 10 -54 63 -107 116 -53 53 -97 102 -99 108 -5 13 21 13 34
0 6 -6 74 7 189 35 290 70 307 71 367 12z m1865 11 c-3 -7 -5 -2 -5 12 0 14 2
19 5 13 2 -7 2 -19 0 -25z m4427 14 c3 -5 -4 -27 -15 -50 -39 -78 -3 -167 63
-157 20 3 13 -1 -17 -10 -58 -17 -90 -13 -92 12 -3 39 -22 72 -45 75 -20 3
-23 8 -20 38 4 52 21 88 45 93 40 8 76 7 81 -1z m-6876 -26 c-20 -6 -40 -14
-44 -18 -10 -11 -24 -10 -24 1 0 11 43 26 79 28 21 1 19 -1 -11 -11z m7752
-41 c0 -46 -3 -55 -17 -55 -136 -1 -801 -46 -827 -56 -20 -8 -30 46 -17 94
l11 40 133 7 c203 12 448 22 590 23 l127 2 0 -55z m-7695 -132 c112 -108 110
-117 -2 -13 -57 52 -103 96 -103 98 0 10 44 -25 105 -85z m6460 57 c13 -5 14
-9 5 -9 -8 0 -24 4 -35 9 -13 5 -14 9 -5 9 8 0 24 -4 35 -9z m58 -17 c-7 -2
-19 -2 -25 0 -7 3 -2 5 12 5 14 0 19 -2 13 -5z m1080 0 c-13 -2 -33 -2 -45 0
-13 2 -3 4 22 4 25 0 35 -2 23 -4z m-1033 -13 c13 -8 13 -10 -2 -10 -9 0 -20
5 -23 10 -8 13 5 13 25 0z m878 3 c-21 -2 -57 -2 -80 0 -24 2 -7 4 37 4 44 0
63 -2 43 -4z m-180 -10 c-21 -2 -55 -2 -75 0 -21 2 -4 4 37 4 41 0 58 -2 38
-4z m-1082 -14 c3 -6 1 -16 -5 -22 -12 -12 -61 6 -61 23 0 13 57 13 66 -1z
m932 4 c-16 -2 -40 -2 -55 0 -16 2 -3 4 27 4 30 0 43 -2 28 -4z m-2175 -18
c74 -19 136 -51 164 -84 50 -57 16 -185 -60 -226 l-35 -19 -69 31 c-65 29
-113 39 -174 35 -37 -3 -89 -53 -89 -86 0 -34 26 -50 148 -91 123 -41 172 -66
223 -112 67 -61 84 -103 83 -208 0 -74 -5 -100 -26 -145 -30 -67 -92 -132
-158 -165 -175 -89 -461 -65 -554 45 -34 41 -40 68 -26 118 14 54 52 98 96
112 33 11 41 9 106 -25 119 -62 230 -58 262 10 28 59 1 86 -132 127 -162 49
-243 106 -285 198 -16 35 -21 65 -21 132 1 77 4 94 33 152 67 136 205 213 386
215 39 1 97 -6 128 -14z m1294 -22 c-16 -17 -37 -10 -37 12 0 15 43 25 49 12
2 -5 -4 -16 -12 -24z m716 30 c-7 -2 -19 -2 -25 0 -7 3 -2 5 12 5 14 0 19 -2
13 -5z m867 -2 c0 -16 -24 -19 -281 -32 -245 -12 -347 -7 -254 12 90 19 535
36 535 20z m-1076 -10 c4 -5 -3 -7 -14 -4 -23 6 -26 13 -6 13 8 0 17 -4 20 -9z
m-5639 -31 c73 -28 110 -63 125 -119 22 -82 -14 -170 -84 -202 -51 -23 -79
-24 -140 -3 -64 22 -177 16 -231 -12 -52 -27 -73 -63 -60 -101 15 -41 65 -60
185 -72 216 -19 317 -60 397 -158 54 -68 68 -115 68 -238 0 -85 -4 -107 -25
-150 -78 -161 -291 -266 -540 -266 -144 0 -230 23 -289 79 -87 83 -53 222 62
253 33 9 56 7 128 -10 103 -25 158 -26 223 -7 60 18 84 40 92 81 13 71 -35 97
-205 115 -191 19 -290 57 -372 141 -104 107 -126 287 -52 433 56 111 210 215
368 250 102 23 271 16 350 -14z m5335 1 c52 -11 120 -28 150 -36 30 -8 62 -15
72 -15 24 0 23 -25 -2 -43 -20 -14 -50 -84 -50 -117 0 -16 -6 -16 -87 2 -49
10 -108 25 -133 32 -25 8 -73 22 -107 32 -55 17 -63 22 -63 44 0 14 11 49 25
79 25 52 26 53 63 48 20 -2 80 -14 132 -26z m1310 -18 c-1 -5 -7 -35 -15 -67
-8 -33 -12 -76 -9 -97 l6 -37 -39 9 c-76 18 -158 48 -156 57 3 14 -87 22 -116
10 l-26 -11 34 -7 c18 -5 49 -15 70 -23 20 -9 61 -21 91 -27 63 -12 94 -28 71
-37 -7 -3 -22 -14 -32 -24 -16 -16 -40 -21 -128 -26 l-108 -6 -5 90 c-4 80 -7
94 -36 136 -17 26 -28 48 -24 48 73 13 422 22 422 12z m-4790 -19 c0 -17 -22
-14 -28 4 -2 7 3 12 12 12 9 0 16 -7 16 -16z m2556 -9 l37 -15 -8 -93 c-4 -50
-8 -108 -9 -127 l-1 -35 50 -3 c78 -5 89 -21 81 -116 -3 -45 -12 -89 -21 -102
-14 -21 -23 -24 -85 -24 -79 0 -70 11 -89 -111 -14 -87 -14 -111 3 -134 13
-18 25 -20 123 -24 19 -1 36 -69 28 -119 -15 -103 -80 -147 -215 -146 -73 0
-120 16 -171 56 -55 44 -72 179 -45 361 23 152 23 147 -22 147 -60 0 -76 25
-74 111 2 69 13 106 36 121 6 4 32 8 57 8 54 0 51 -7 70 145 6 55 17 106 23
114 14 18 179 8 232 -14z m-1806 -37 c0 -16 -3 -19 -11 -11 -6 6 -8 16 -5 22
11 17 16 13 16 -11z m3060 8 c0 -2 -13 -20 -29 -40 -18 -22 -33 -55 -37 -82
-6 -44 -15 -51 -48 -38 -20 8 -20 30 -1 85 21 59 42 79 82 79 18 0 33 -2 33
-4z m452 -20 c15 -10 30 -26 33 -36 5 -17 -11 -201 -35 -395 -6 -44 -17 -156
-25 -250 -29 -329 -42 -435 -54 -449 -28 -34 -162 -30 -200 5 -12 12 -21 32
-21 49 0 36 -3 37 -43 6 -47 -35 -104 -49 -188 -45 -143 8 -236 86 -275 231
-17 64 -18 198 -3 270 25 113 95 215 178 258 91 45 218 50 297 9 21 -10 42
-19 46 -19 4 0 8 19 8 43 0 23 7 102 14 175 19 175 19 175 146 170 70 -3 102
-9 122 -22z m-352 -1 c0 -9 -9 -34 -21 -57 -12 -23 -24 -68 -27 -100 -4 -47
-8 -58 -21 -56 -9 2 -17 13 -19 26 -2 13 -10 22 -21 22 -41 0 -44 43 -7 132
18 41 26 46 79 47 27 1 37 -3 37 -14z m-6520 -5 c0 -5 -4 -10 -10 -10 -5 0
-10 5 -10 10 0 6 5 10 10 10 6 0 10 -4 10 -10z m3714 -25 c17 -7 18 -17 13
-90 l-5 -83 58 -4 c85 -6 93 -16 88 -110 -6 -103 -18 -116 -107 -120 l-66 -3
-8 -98 c-7 -84 -6 -103 8 -124 15 -23 22 -24 77 -21 55 3 63 1 79 -22 13 -17
19 -44 20 -83 2 -72 -17 -101 -87 -136 -41 -21 -64 -25 -134 -26 -118 0 -173
27 -213 105 l-29 55 6 167 c3 92 7 172 8 179 2 8 -12 14 -37 16 -63 7 -75 24
-75 107 0 92 14 113 80 122 l49 6 6 67 c3 36 7 75 8 86 1 11 12 22 25 25 31 7
212 -4 236 -15z m-3767 -10 c3 -9 3 -19 -1 -22 -8 -9 -37 18 -30 28 8 14 24
11 31 -6z m5893 -45 c0 -5 -4 -10 -10 -10 -5 0 -10 5 -10 10 0 6 5 10 10 10 6
0 10 -4 10 -10z m135 -25 c132 -29 270 -67 282 -77 18 -14 5 -30 -15 -19 -9 4
-60 18 -112 31 -138 32 -260 71 -260 82 0 5 8 7 18 4 9 -3 49 -12 87 -21z
m-302 -52 c-8 -19 -9 -19 -38 -2 l-30 19 33 6 c17 4 33 12 33 18 1 6 3 4 6 -5
2 -8 0 -24 -4 -36z m1761 -22 c10 -9 36 -16 60 -16 34 0 42 -4 44 -21 3 -20
-3 -22 -88 -28 -51 -4 -98 -3 -107 3 -11 6 -21 4 -31 -5 -16 -17 -42 -18 -42
-3 0 22 44 71 74 85 34 14 61 10 90 -15z m-5479 -16 c60 -25 110 -89 131 -168
16 -63 47 -496 38 -532 -12 -46 -48 -65 -129 -65 -110 0 -117 8 -127 156 -18
260 -24 303 -43 324 -20 22 -55 26 -85 10 -37 -20 -42 -67 -29 -276 l13 -197
-28 -23 c-23 -21 -38 -24 -105 -24 -114 0 -118 5 -131 195 -20 275 -32 315
-89 315 -39 0 -69 -26 -77 -65 -3 -19 -1 -85 6 -147 6 -62 14 -152 17 -200 6
-84 5 -87 -21 -111 -40 -37 -135 -49 -185 -22 -43 22 -53 61 -55 203 -1 101
-6 139 -23 187 -20 56 -53 263 -53 332 0 39 35 69 90 77 22 3 58 9 80 12 35 5
43 2 71 -25 l30 -31 37 29 c108 83 263 81 331 -5 l21 -26 37 30 c21 16 48 34
60 41 59 31 152 33 218 6z m671 10 c59 -17 127 -73 154 -125 30 -60 39 -112
50 -328 15 -273 5 -302 -109 -302 -42 0 -60 5 -78 22 -13 12 -23 27 -23 35 0
18 -5 17 -52 -17 -122 -89 -306 -73 -375 31 -39 59 -45 174 -13 243 27 57 81
100 153 121 58 17 163 20 201 5 21 -8 26 -7 26 6 0 21 -20 56 -39 71 -24 19
-101 15 -166 -7 -81 -28 -101 -26 -141 14 -29 29 -34 41 -34 80 0 37 5 52 25
72 76 76 294 117 421 79z m433 -9 c12 -11 21 -27 21 -38 0 -23 11 -23 41 1 45
35 90 52 127 49 l36 -3 0 -135 c0 -126 -1 -135 -20 -138 -57 -10 -96 -25 -125
-49 l-31 -27 7 -181 c6 -161 5 -183 -9 -198 -22 -22 -76 -31 -139 -24 -85 11
-84 7 -102 297 -29 454 -29 434 -14 447 35 28 176 28 208 -1z m3276 -6 c17 -7
15 -9 -12 -9 -18 -1 -33 4 -33 9 0 12 17 12 45 0z m1291 -8 c6 -4 15 -26 19
-49 l7 -43 -46 0 c-44 0 -67 12 -46 25 5 3 10 22 10 41 0 29 3 34 23 34 12 0
27 -4 33 -8z m-400 -27 c-11 -8 -32 -15 -46 -15 -15 0 -55 -3 -89 -6 -51 -6
-61 -4 -61 9 0 20 23 24 130 25 77 1 83 0 66 -13z m-1643 -16 c15 -7 30 -22
33 -33 2 -12 -4 -107 -15 -213 -11 -106 -16 -205 -12 -220 15 -56 104 -68 137
-18 11 16 21 86 33 229 11 129 22 211 31 220 15 19 139 22 191 5 69 -24 72
-31 64 -154 -4 -60 -11 -135 -16 -165 -5 -30 -14 -131 -19 -225 -13 -201 -14
-209 -46 -224 -35 -15 -118 -14 -159 3 -27 11 -35 22 -40 49 l-7 35 -36 -24
c-53 -36 -135 -57 -190 -49 -110 16 -179 74 -208 172 -19 65 -16 213 10 467
17 172 16 170 136 163 47 -3 98 -11 113 -18z m2142 11 c25 -11 -1 -11 -35 0
-20 6 -21 8 -5 8 11 0 29 -3 40 -8z m212 -9 c33 -9 52 -36 36 -52 -8 -8 -16
-8 -31 0 -11 6 -40 11 -63 11 -47 0 -79 -21 -79 -52 0 -11 -3 -18 -7 -16 -52
25 -63 34 -63 49 0 10 10 25 21 33 14 10 19 21 15 32 -6 15 1 16 69 9 41 -4
87 -10 102 -14z m-237 -35 c0 -8 -4 -18 -10 -21 -5 -3 -10 3 -10 14 0 12 5 21
10 21 6 0 10 -6 10 -14z m247 -52 c57 -27 119 -132 94 -157 -5 -5 -12 4 -16
23 -9 42 -83 116 -124 125 -17 3 -33 11 -36 16 -10 15 44 10 82 -7z m-265 -15
c124 -42 215 -142 233 -255 6 -39 6 -39 -14 11 -42 104 -71 141 -147 191 -67
43 -153 68 -216 62 -29 -3 -44 -2 -36 3 24 16 117 9 180 -12z m-332 -6 c-14
-10 -34 -25 -45 -35 -19 -19 -36 -19 -42 -2 -2 5 18 19 45 31 56 27 76 30 42
6z m-242 -56 c19 -7 43 -23 53 -37 11 -15 33 -95 54 -195 20 -93 37 -170 38
-172 2 -1 36 70 77 158 40 87 82 167 92 176 39 35 236 -24 253 -76 9 -29 -3
-69 -50 -156 -23 -44 -80 -152 -125 -240 -207 -400 -210 -404 -268 -457 -70
-63 -96 -73 -197 -73 -145 1 -205 46 -205 153 0 33 9 66 28 103 29 58 32 59
109 43 45 -9 78 1 97 31 16 25 14 34 -58 268 -123 398 -128 417 -115 449 6 15
23 32 38 37 30 12 127 5 179 -12z m696 -125 c28 -45 46 -103 46 -151 0 -26 -3
-32 -16 -27 -9 3 -22 6 -30 6 -10 0 -14 14 -14 50 0 33 4 50 13 50 7 0 8 3 2
8 -14 10 -44 102 -34 102 5 0 20 -17 33 -38z m-4547 -219 c-3 -10 -5 -4 -5 12
0 17 2 24 5 18 2 -7 2 -21 0 -30z m4557 -43 c-15 -29 -41 -61 -57 -72 -31 -22
-47 -19 -22 5 8 9 15 25 15 36 0 11 4 22 9 26 5 3 12 18 16 35 5 22 13 30 33
32 15 2 28 0 30 -4 2 -4 -9 -30 -24 -58z m-4007 -216 c-3 -3 -12 -4 -19 -1 -8
3 -5 6 6 6 11 1 17 -2 13 -5z m-787 -14 c11 -7 4 -10 -25 -10 -22 0 -47 5 -55
10 -11 7 -4 10 25 10 22 0 47 -5 55 -10z m1214 -41 c64 -11 196 -8 281 6 19 3
14 -1 -15 -11 -82 -28 -346 -15 -366 18 -4 6 1 8 12 5 11 -4 50 -11 88 -18z
m875 -25 c9 -8 -105 -2 -124 6 -13 6 6 7 50 3 39 -3 72 -7 74 -9z m-3522 0
c-3 -3 -12 -4 -19 -1 -8 3 -5 6 6 6 11 1 17 -2 13 -5z m-342 -34 c-3 -5 -33
-10 -66 -10 -33 0 -59 4 -59 10 0 6 29 10 66 10 41 0 63 -4 59 -10z m2705 0
c0 -6 10 -15 23 -20 18 -7 15 -9 -20 -9 -46 -1 -50 2 -30 24 14 17 27 19 27 5z
m1650 0 c11 -7 4 -10 -25 -9 -31 0 -36 2 -20 9 26 11 28 11 45 0z m-2280 -23
c52 -2 48 -3 -25 -4 -49 0 -82 1 -72 4 9 2 17 10 17 16 0 9 2 9 8 0 4 -7 37
-14 72 -16z m-17 16 c-7 -2 -19 -2 -25 0 -7 3 -2 5 12 5 14 0 19 -2 13 -5z
m2620 -20 c-18 -2 -48 -2 -65 0 -18 2 -4 4 32 4 36 0 50 -2 33 -4z m-3713 -34
c0 -5 -7 -9 -15 -9 -15 0 -20 12 -9 23 8 8 24 -1 24 -14z m2578 14 c-10 -2
-26 -2 -35 0 -10 3 -2 5 17 5 19 0 27 -2 18 -5z m-2918 -35 c0 -4 -21 -8 -47
-8 l-48 0 24 19 c20 15 29 17 48 8 13 -5 23 -14 23 -19z m3440 12 c0 -5 -7
-10 -15 -10 -8 0 -15 5 -15 10 0 6 7 10 15 10 8 0 15 -4 15 -10z m1054 -1 c58
0 67 -2 46 -11 -28 -11 -124 -4 -161 12 -22 10 -21 10 10 5 18 -3 66 -5 105
-6z m-5545 -36 c-49 -36 -86 -52 -174 -73 -166 -39 -383 -23 -461 35 -17 12
-15 13 19 5 21 -4 51 -13 65 -19 45 -17 193 -28 271 -20 95 10 244 54 276 81
5 4 13 8 18 8 5 0 -1 -8 -14 -17z m3746 -3 c192 1 300 -2 318 -9 16 -6 106
-16 200 -21 95 -5 208 -12 252 -15 44 -3 166 -9 270 -15 105 -6 203 -13 219
-16 16 -4 104 -10 195 -14 91 -4 184 -12 206 -18 22 -6 109 -15 194 -22 165
-12 269 -31 282 -52 10 -17 2 -28 -22 -28 -11 0 -19 -7 -20 -17 -1 -17 -2 -17
-6 0 -2 9 -8 17 -13 17 -5 0 -7 -6 -4 -14 4 -10 -2 -12 -20 -9 -21 4 -26 1
-26 -15 0 -15 8 -22 28 -25 15 -2 -20 -5 -78 -6 -95 -1 -106 1 -118 19 -21 35
-32 22 -32 -39 0 -69 -1 -70 -98 -67 -34 1 -57 -1 -50 -6 22 -14 -9 -10 -33 5
-17 9 -23 9 -26 0 -3 -10 -9 -10 -23 -1 -27 17 -34 5 -21 -33 13 -38 12 -40
-16 -33 -25 7 -37 42 -21 61 14 17 0 17 -17 -1 -8 -8 -14 -31 -13 -52 1 -21 3
-33 6 -26 9 27 28 11 25 -20 -4 -31 -3 -32 9 -11 7 12 16 21 20 20 4 -1 17 13
30 32 13 19 30 36 38 38 13 4 13 2 -1 -9 -22 -19 -69 -101 -69 -123 0 -14 -3
-15 -14 -6 -8 7 -20 11 -28 10 -7 -1 -32 -1 -55 0 l-43 1 0 80 0 80 -50 0
c-27 0 -50 -4 -50 -10 0 -5 -7 -10 -16 -10 -33 0 -60 -52 -31 -63 6 -3 -8 -2
-33 0 -25 3 -46 7 -48 8 -8 6 12 35 25 35 14 0 43 23 43 34 0 3 -15 6 -34 6
-33 0 -35 -2 -41 -45 -7 -43 -28 -75 -39 -57 -8 14 10 67 23 64 6 -1 11 5 11
13 0 8 -2 15 -4 15 -2 0 -11 3 -20 6 -12 4 -16 0 -16 -15 0 -12 -4 -21 -10
-21 -5 0 -10 9 -10 20 0 11 -4 20 -10 20 -5 0 -10 9 -10 20 0 11 -4 20 -10 20
-5 0 -10 9 -10 20 0 11 -4 20 -10 20 -10 0 -94 55 -117 77 -16 14 -31 19 -107
32 -93 17 -110 14 -150 -23 -27 -26 -36 -43 -36 -68 l-1 -33 -13 30 c-8 17
-10 34 -5 40 5 5 9 14 9 20 0 5 -7 2 -15 -9 -13 -18 -15 -18 -41 3 -14 11 -52
33 -83 48 -48 23 -68 27 -135 25 -113 -2 -132 -26 -142 -174 -7 -102 -18 -130
-40 -100 -7 10 -15 37 -19 60 -3 24 -14 75 -24 115 -10 39 -17 77 -14 83 2 7
-8 9 -29 7 -18 -1 -27 0 -20 3 10 5 10 9 1 20 -13 15 -34 20 -25 5 4 -5 -14
-9 -39 -9 -25 0 -45 4 -45 9 0 5 -8 9 -17 9 -14 0 -15 -2 -4 -9 19 -12 -4 -24
-30 -16 -13 4 -19 3 -16 -2 4 -5 -9 -41 -28 -79 -19 -38 -35 -79 -35 -91 0
-12 -4 -32 -9 -45 -5 -13 -12 -32 -16 -43 -6 -16 -10 -10 -22 30 -8 28 -15 58
-16 68 -1 9 -5 17 -9 17 -4 0 -8 6 -8 13 0 15 -26 52 -54 76 -10 9 -27 24 -38
34 -10 9 -18 15 -18 12 0 -3 -13 1 -30 10 -70 36 -182 13 -251 -51 -14 -13
-29 -21 -34 -17 -4 5 -5 2 -1 -5 5 -8 2 -21 -7 -30 -8 -9 -21 -30 -30 -47 -16
-31 -19 -29 -31 25 -3 14 -19 41 -36 60 -16 19 -30 41 -30 48 0 6 -8 12 -19
12 -10 0 -47 9 -81 20 -66 21 -170 27 -170 10 0 -5 -7 -10 -15 -10 -8 0 -15
-4 -15 -10 0 -5 -5 -10 -11 -10 -5 0 -7 5 -4 10 3 6 1 10 -5 10 -6 0 -10 -8
-9 -17 1 -10 0 -25 -4 -33 -3 -8 -8 -24 -12 -35 -7 -18 -8 -18 -15 7 -4 14
-16 38 -26 52 -16 21 -27 25 -69 26 -29 0 -60 -6 -71 -15 -12 -8 -24 -12 -26
-9 -3 2 -11 -39 -19 -92 -13 -99 -27 -105 -28 -13 -1 31 -8 55 -22 73 -11 14
-18 29 -15 34 2 4 -3 8 -12 9 -9 0 -38 3 -64 5 -25 2 -44 0 -42 -4 3 -5 0 -8
-6 -8 -15 0 -50 -61 -50 -90 l-1 -25 -17 25 c-26 39 -74 80 -85 73 -6 -3 -7
-1 -3 5 4 7 2 12 -3 12 -6 0 -11 7 -11 15 0 9 -9 15 -22 15 -19 0 -20 2 -8 10
10 7 -10 10 -65 9 -54 0 -73 -3 -60 -9 19 -8 19 -9 -2 -9 -27 -1 -40 -20 -22
-32 10 -6 3 -12 -24 -24 -21 -9 -40 -22 -43 -30 -4 -8 -11 -12 -17 -8 -5 3 -7
1 -3 -5 3 -6 2 -13 -3 -17 -5 -3 -14 1 -18 9 -6 10 -9 2 -9 -24 -1 -22 -7 -47
-14 -55 -8 -10 -10 -29 -6 -55 4 -25 2 -40 -4 -40 -5 0 -11 12 -11 28 -1 20
-3 17 -8 -13 l-6 -40 -18 51 c-10 28 -15 58 -11 67 3 10 2 17 -4 17 -5 0 -12
14 -16 30 -3 17 -21 46 -39 65 -31 32 -39 35 -89 35 -70 0 -115 -28 -134 -84
-7 -21 -18 -42 -24 -46 -6 -4 -8 -14 -5 -23 6 -14 -26 -58 -41 -56 -3 0 -9 -3
-12 -7 -4 -4 -2 -4 4 -1 8 5 13 -8 16 -38 4 -52 -4 -47 -21 15 -7 26 -24 55
-39 68 -23 19 -25 24 -12 32 13 8 12 10 -2 10 -10 0 -18 4 -18 9 0 5 -14 14
-30 21 -24 10 -29 17 -25 34 2 11 2 15 -1 9 -4 -9 -11 -10 -25 -3 -14 8 -19 7
-19 -1 0 -8 -4 -8 -15 1 -20 16 -233 19 -243 4 -4 -6 -17 -16 -29 -22 -12 -7
-24 -20 -26 -29 -2 -10 -3 -1 -1 20 3 28 1 37 -11 37 -8 0 -15 -6 -16 -12 0
-10 -2 -10 -6 0 -2 7 -22 12 -44 12 -39 0 -39 0 -39 -40 0 -40 0 -40 -39 -40
-36 0 -40 3 -46 31 -8 35 -1 45 35 52 24 4 24 4 -2 6 -45 2 -32 21 15 22 l42
2 -40 7 c-40 7 -40 7 15 10 30 1 66 6 80 10 22 7 20 8 -15 9 -48 1 -245 -18
-300 -29 -31 -7 -26 -8 25 -4 36 3 84 7 108 10 25 3 42 1 42 -5 0 -5 -19 -14
-42 -19 l-43 -10 44 -1 c44 -1 50 -15 8 -17 -12 -1 -28 -2 -34 -3 -8 0 -13
-15 -13 -36 0 -34 -1 -35 -40 -35 -22 0 -40 -4 -40 -10 0 -5 -18 -10 -40 -10
-38 0 -40 -2 -40 -30 0 -23 -5 -30 -19 -30 -10 0 -22 -8 -25 -17 -6 -15 -10
-14 -29 10 -26 32 -87 49 -87 23 0 -9 -4 -16 -8 -16 -4 0 -18 -20 -30 -45 -29
-60 -43 -57 -41 8 1 28 -1 63 -6 76 -5 16 -3 27 6 33 10 7 9 8 -6 4 -17 -5
-20 -1 -20 32 1 24 -5 39 -15 44 -10 5 -8 7 10 7 14 1 31 5 38 10 14 9 8 8
-223 -10 -150 -12 -281 -31 -293 -44 -4 -4 29 -5 73 -1 44 3 107 8 140 11 l60
4 -55 -13 -55 -13 35 -10 c26 -8 29 -11 13 -12 -13 -1 -23 -7 -24 -13 0 -10
-2 -10 -6 0 -7 18 -24 15 -21 -5 2 -11 -6 -19 -22 -24 -14 -4 -20 -7 -13 -8
14 -1 6 -31 -9 -31 -5 0 -7 4 -3 9 10 17 -31 30 -91 30 -33 0 -76 3 -96 6 -29
6 -40 3 -54 -13 -13 -16 -21 -18 -35 -9 -12 8 -32 7 -73 -2 l-56 -12 0 -41 c0
-48 23 -73 76 -83 26 -4 43 -1 62 12 15 9 38 18 52 19 14 1 17 0 8 -3 -10 -2
-18 -11 -18 -19 0 -13 4 -13 29 0 26 14 30 14 42 0 17 -21 19 -54 2 -54 -13 0
-17 -17 -14 -52 2 -13 -4 -16 -26 -13 -77 11 -103 23 -82 37 9 6 5 7 -12 3
-19 -5 -28 -2 -32 9 -4 9 -13 13 -21 10 -8 -3 -36 9 -61 26 -26 18 -49 30 -51
27 -10 -10 97 -79 222 -143 71 -37 131 -69 133 -71 2 -1 -31 -36 -75 -77 -85
-78 -124 -141 -131 -210 -13 -108 118 -157 332 -125 86 12 482 63 700 89 1106
135 2510 168 3790 90 465 -29 809 -62 1320 -126 198 -25 394 -50 435 -55 41
-5 120 -10 175 -11 111 -1 163 15 192 59 18 27 19 112 2 146 -21 41 -93 123
-141 162 -27 21 -48 43 -48 49 0 6 46 33 103 60 129 62 225 123 283 181 37 38
45 51 42 77 -2 23 -11 36 -33 48 -36 20 -43 45 -16 59 64 34 138 -78 100 -152
-37 -73 -203 -196 -347 -257 l-53 -23 49 -51 c161 -165 163 -334 3 -391 -80
-28 -175 -21 -846 64 -1371 173 -2880 206 -4305 96 -107 -9 -238 -20 -290 -26
-52 -6 -131 -14 -175 -19 -357 -39 -547 -62 -590 -70 -122 -23 -473 -62 -524
-58 -73 5 -149 43 -178 87 -53 79 -16 209 89 314 32 32 58 60 58 62 0 2 -22
11 -48 19 -68 23 -217 110 -280 163 -70 60 -97 112 -84 164 7 27 7 39 -1 39
-6 0 -7 3 -3 8 4 4 10 6 12 4 2 -1 23 8 47 22 73 43 190 66 384 75 127 7 223
18 333 40 297 58 911 112 1380 122 27 0 30 2 16 8 -11 4 19 6 67 3 48 -2 87
-1 87 4 0 5 55 10 123 12 67 1 156 7 197 11 41 5 433 7 870 4 437 -2 926 -3
1085 -3z m-3510 -40 c-3 -5 -11 -10 -16 -10 -6 0 -7 5 -4 10 3 6 11 10 16 10
6 0 7 -4 4 -10z m2682 -125 c48 -32 64 -52 73 -91 11 -47 3 -93 -21 -119 -17
-19 -17 -21 6 -43 29 -28 50 -91 42 -124 -11 -42 -51 -91 -92 -112 -30 -15
-64 -21 -135 -24 -142 -5 -133 -23 -138 262 -5 249 -3 260 41 270 12 2 61 3
109 2 64 -3 95 -8 115 -21z m481 -12 c45 -26 93 -89 113 -151 6 -20 9 -66 7
-106 -10 -153 -105 -256 -236 -256 -62 0 -108 19 -148 62 -52 54 -67 95 -72
189 -4 77 -2 91 22 142 67 141 194 190 314 120z m-845 14 c16 -11 18 -41 24
-247 7 -273 7 -273 -75 -268 -58 4 -72 26 -72 117 0 61 -1 63 -22 57 -13 -3
-33 -6 -45 -6 -22 0 -23 -4 -23 -74 0 -88 -12 -106 -70 -106 -71 0 -74 12 -85
324 -6 194 -2 206 67 206 62 0 78 -24 78 -119 0 -44 3 -82 8 -84 4 -2 24 -2
45 0 l37 5 0 86 c0 103 12 122 75 122 22 0 49 -6 58 -13z m-516 -16 c23 -11
49 -31 58 -44 14 -23 15 -29 1 -61 -18 -44 -54 -56 -102 -32 -54 25 -94 16
-94 -21 0 -13 11 -19 110 -59 125 -52 158 -176 69 -265 -67 -67 -170 -76 -259
-21 -39 24 -45 32 -45 61 0 25 7 39 26 53 26 20 26 20 78 -3 42 -18 56 -20 76
-11 25 12 31 28 17 48 -4 6 -38 25 -76 41 -87 39 -122 69 -136 121 -20 78 23
161 104 197 45 20 124 18 173 -4z m1797 -3 c22 -19 30 -44 51 -148 14 -69 34
-165 45 -214 11 -50 20 -100 20 -112 0 -48 -89 -73 -124 -35 -9 10 -20 35 -23
55 l-6 36 -53 0 c-45 0 -54 -3 -54 -17 0 -34 -38 -83 -64 -83 -39 0 -76 21
-82 47 -4 15 13 89 46 196 28 95 56 190 62 212 17 64 42 85 104 85 41 0 59 -5
78 -22z m427 -14 c134 -42 164 -227 52 -321 l-26 -21 35 -44 c46 -56 54 -82
34 -113 -13 -20 -25 -25 -55 -25 -42 0 -52 8 -121 106 l-34 49 -9 -60 c-10
-72 -20 -85 -62 -85 -56 0 -68 25 -67 137 2 166 14 357 23 375 15 28 143 29
230 2z m-2689 -13 c16 -15 148 -423 148 -456 0 -51 -104 -77 -134 -33 -9 12
-16 33 -16 45 0 21 -4 23 -55 23 l-54 0 -11 -40 c-6 -21 -17 -46 -26 -55 -20
-19 -63 -19 -92 1 -28 19 -28 55 -2 176 12 50 29 135 40 189 23 118 41 157 78
165 15 3 32 7 37 9 20 6 70 -8 87 -24z m3122 -21 c57 -29 120 -97 137 -147 18
-54 8 -170 -20 -226 -27 -57 -95 -111 -158 -126 -71 -18 -167 -14 -194 8 -23
18 -24 25 -21 118 7 250 18 384 33 394 7 6 50 8 94 6 60 -2 93 -9 129 -27z
m-3597 -10 c142 -50 209 -204 152 -354 -37 -101 -138 -164 -267 -169 -51 -2
-66 2 -76 15 -15 20 -35 195 -43 373 -6 127 -3 137 42 148 49 12 139 6 192
-13z m-1922 -30 c-27 -12 -43 -12 -25 0 8 5 22 9 30 9 10 0 8 -3 -5 -9z m6695
-87 c0 -7 -8 -13 -17 -13 -16 0 -16 2 -3 10 13 9 13 12 -1 23 -9 6 -14 18 -11
26 3 10 9 7 18 -10 7 -13 13 -30 14 -36z m-5793 25 c26 -24 30 -63 12 -134
-13 -51 -13 -50 23 -59 23 -6 29 -2 53 39 25 43 45 59 45 35 0 -5 -11 -27 -25
-47 -25 -37 -33 -82 -15 -82 6 0 10 4 10 9 0 11 85 65 119 76 12 4 33 4 47 1
31 -8 32 -45 2 -73 -35 -32 -124 -73 -160 -74 -22 0 -27 -3 -16 -7 9 -4 49
-35 88 -70 56 -51 70 -69 70 -92 0 -38 -28 -54 -67 -39 -15 5 -30 14 -33 18
-3 4 -23 20 -44 36 -22 17 -47 43 -57 59 -17 28 -17 29 9 53 l27 24 -28 -17
c-34 -21 -105 -14 -124 13 -8 9 -16 34 -19 55 l-6 37 -69 11 c-74 13 -100 30
-79 55 17 21 29 19 101 -14 58 -28 64 -29 90 -15 16 8 29 17 29 19 0 3 -17 38
-37 79 -32 65 -35 78 -25 100 14 32 47 34 79 4z m-154 -28 c3 -11 0 -20 -6
-20 -7 0 -5 -5 3 -10 8 -5 11 -10 5 -10 -5 1 -19 7 -29 15 -10 8 -24 12 -30 9
-6 -3 -3 1 7 9 9 8 17 22 17 32 0 14 3 15 14 6 8 -6 16 -21 19 -31z m6372 20
c-16 -4 -55 -7 -85 -7 l-55 0 60 7 c33 4 71 7 85 7 22 1 21 0 -5 -7z m-4964
-27 c-12 -20 -14 -14 -5 12 4 9 9 14 11 11 3 -2 0 -13 -6 -23z m-918 10 c-7
-2 -19 -2 -25 0 -7 3 -2 5 12 5 14 0 19 -2 13 -5z m5294 -9 c-3 -3 -12 -4 -19
-1 -8 3 -5 6 6 6 11 1 17 -2 13 -5z m-5447 -19 c10 -12 10 -18 0 -30 -16 -19
-39 -19 -46 0 -6 15 11 45 26 45 4 0 13 -7 20 -15z m5600 2 c27 -2 35 -6 34
-20 -1 -10 1 -16 4 -13 7 7 42 -23 42 -36 0 -5 -5 -6 -11 -2 -8 4 -9 -4 -5
-27 6 -30 5 -31 -5 -14 -7 11 -17 23 -23 28 -8 5 -7 10 3 16 9 6 5 9 -14 9
-14 0 -31 4 -37 10 -8 8 -5 9 11 5 16 -4 20 -2 15 10 -3 8 -17 18 -32 22 -15
3 -43 10 -62 15 l-35 9 40 -5 c22 -3 56 -6 75 -7z m-147 -4 c-7 -2 -19 -2 -25
0 -7 3 -2 5 12 5 14 0 19 -2 13 -5z m-58 -13 c3 -5 1 -10 -4 -10 -6 0 -11 5
-11 10 0 6 2 10 4 10 3 0 8 -4 11 -10z m-5674 -42 c6 -24 16 -46 22 -50 6 -4
9 -10 5 -13 -3 -3 -12 0 -19 8 -14 14 -22 17 -39 17 -5 0 -10 6 -10 14 0 8 -7
16 -15 20 -18 7 -20 32 -2 39 34 14 46 6 58 -35z m5757 37 c-2 -3 -26 -16 -52
-29 -39 -20 -48 -21 -53 -10 -3 8 -3 18 1 21 3 4 6 1 6 -6 0 -10 6 -10 23 2
13 8 34 17 48 20 13 2 26 5 28 6 2 0 2 -1 -1 -4z m-5417 -35 c-11 -6 -7 -10
15 -13 20 -3 17 -4 -12 -4 -42 1 -42 1 -27 24 12 17 19 21 27 13 8 -8 7 -13
-3 -20z m499 21 c0 -6 -4 -13 -10 -16 -5 -3 -10 1 -10 9 0 9 5 16 10 16 6 0
10 -4 10 -9z m4762 -31 c21 -23 38 -47 38 -55 0 -19 14 -19 31 1 41 50 139 60
188 18 40 -33 57 -89 42 -136 -12 -38 -76 -106 -88 -94 -4 4 -3 10 3 14 24 17
54 73 54 102 0 42 -14 67 -50 85 -41 21 -69 19 -126 -10 l-49 -25 -22 27 c-13
16 -23 31 -23 35 0 13 -90 40 -113 34 -45 -11 -74 -43 -81 -89 -4 -24 -2 -56
3 -70 6 -15 7 -27 2 -27 -12 0 -31 56 -31 92 0 81 55 138 133 138 46 0 54 -4
89 -40z m927 9 c-8 -5 -10 -9 -5 -9 5 0 3 -7 -4 -15 -11 -13 -10 -14 4 -9 9 3
16 2 16 -3 0 -11 -28 -29 -141 -89 -36 -19 -75 -22 -71 -5 1 7 -2 19 -8 26
-10 13 10 22 161 77 15 5 32 21 40 35 7 14 15 20 17 13 3 -7 -2 -16 -9 -21z
m-6879 -20 c0 -11 -4 -17 -10 -14 -5 3 -10 13 -10 21 0 8 5 14 10 14 6 0 10
-9 10 -21z m787 -51 c-2 -8 -10 -1 -17 15 -7 15 -17 27 -22 27 -4 0 -8 7 -8
16 0 10 9 5 26 -15 14 -17 24 -37 21 -43z m14 50 c19 -24 24 -38 12 -38 -5 0
-16 14 -25 30 -20 35 -14 39 13 8z m50 13 c-8 -5 -20 -7 -28 -4 -21 8 -15 13
15 13 20 0 23 -3 13 -9z m6069 -7 c0 -8 -19 -13 -24 -6 -3 5 1 9 9 9 8 0 15
-2 15 -3z m-570 -18 c9 -12 8 -15 -9 -13 -12 1 -21 7 -21 14 0 17 15 16 30 -1z
m41 -29 c-1 -12 -15 -9 -19 4 -3 6 1 10 8 8 6 -3 11 -8 11 -12z m-61 -7 c0 -5
8 -6 17 -3 15 6 16 5 3 -9 -8 -9 -16 -12 -18 -7 -6 15 -22 10 -22 -8 0 -9 -3
-14 -6 -10 -8 8 5 47 17 47 5 0 9 -4 9 -10z m-6173 -42 c-3 -7 -5 -2 -5 12 0
14 2 19 5 13 2 -7 2 -19 0 -25z m6166 -28 c3 -11 1 -20 -4 -20 -5 0 -9 9 -9
20 0 11 2 20 4 20 2 0 6 -9 9 -20z m172 -45 c0 -23 -34 -33 -46 -13 -17 26
-10 39 19 36 19 -2 27 -9 27 -23z m-5617 3 c28 -28 7 -78 -33 -78 -27 0 -45
18 -45 45 0 27 18 45 45 45 12 0 26 -5 33 -12z m4762 -23 c19 -23 4 -64 -27
-71 -14 -4 -33 -2 -42 3 -20 13 -26 50 -11 69 16 18 64 18 80 -1z m-5266 -26
c18 -36 13 -43 -54 -75 -30 -15 -37 -15 -60 -3 -15 9 -26 25 -28 40 -2 21 3
29 30 41 78 36 93 36 112 -3z m76 -113 c0 -17 -27 -29 -35 -16 -4 6 -3 15 0
20 9 15 35 12 35 -4z m-52 -83 c3 -22 -28 -40 -48 -28 -12 7 -13 38 -3 49 15
14 48 1 51 -21z"/>
<path d="M7013 7225 c-115 -35 -184 -104 -191 -189 -4 -48 -2 -55 23 -74 36
-29 81 -28 178 3 106 34 193 34 267 -1 66 -30 114 -75 142 -129 27 -54 55 -83
88 -90 45 -10 79 10 102 61 68 154 -88 357 -322 419 -68 18 -230 18 -287 0z"/>
<path d="M6035 7047 c-27 -8 -71 -23 -98 -35 -52 -23 -157 -121 -157 -146 0
-22 2 -21 51 24 71 65 167 110 249 117 101 8 153 -9 217 -73 40 -40 55 -64 68
-108 9 -32 15 -60 12 -62 -2 -3 -20 17 -40 45 -27 37 -52 57 -104 83 -60 29
-77 33 -148 33 -133 -1 -234 -61 -293 -175 -27 -53 -32 -73 -32 -133 0 -115
39 -175 154 -235 46 -24 61 -27 161 -27 103 0 113 2 163 30 63 34 97 71 128
140 20 45 23 65 22 200 0 127 -3 155 -19 187 -56 110 -201 169 -334 135z m134
-297 c77 -39 87 -138 20 -194 -61 -52 -139 -40 -179 27 -40 65 -16 142 54 173
42 18 60 17 105 -6z"/>
<path d="M7013 6860 c-79 -18 -174 -104 -178 -160 -1 -10 -24 -43 -52 -74
-148 -161 -91 -395 115 -478 51 -20 72 -22 202 -21 210 3 269 6 264 14 -2 4
-22 10 -44 14 l-40 7 35 40 c49 58 68 124 63 217 -11 180 -143 308 -328 319
-65 4 -86 1 -140 -21 -35 -15 -65 -25 -67 -23 -9 9 75 78 124 102 187 88 396
-27 470 -259 20 -62 33 -73 33 -28 0 51 -40 159 -76 207 -51 66 -81 91 -149
125 -50 24 -72 29 -130 28 -38 -1 -84 -4 -102 -9z m79 -290 c30 0 85 -61 93
-102 14 -76 -48 -148 -130 -148 -114 0 -172 123 -99 210 25 30 77 52 102 44 8
-2 23 -4 34 -4z"/>
<path d="M6120 6280 c-11 -11 -20 -28 -20 -37 0 -22 29 -58 53 -66 18 -7 24 8
6 18 -18 11 -27 49 -17 68 5 10 19 22 31 27 21 8 20 9 -5 9 -16 1 -37 -8 -48
-19z"/>
<path d="M7910 5994 c-43 -19 -70 -43 -70 -62 0 -12 8 -9 28 10 30 30 71 48
108 48 13 0 24 5 24 10 0 15 -50 11 -90 -6z"/>
<path d="M7845 5886 c-38 -17 -69 -51 -61 -68 3 -7 11 -21 18 -30 10 -14 10
-22 0 -39 -16 -25 -7 -37 16 -23 20 13 27 65 12 93 -8 16 -7 22 9 31 27 14
104 13 119 -2 14 -14 24 -6 17 14 -14 35 -78 47 -130 24z"/>
<path d="M4969 7103 l-24 -28 30 25 c17 14 32 26 34 28 2 1 0 2 -6 2 -5 0 -20
-12 -34 -27z"/>
<path d="M4895 7039 c-11 -17 1 -21 15 -4 8 9 8 15 2 15 -6 0 -14 -5 -17 -11z"/>
<path d="M4835 6982 c-16 -16 -36 -36 -44 -45 -25 -32 -5 -17 39 28 49 50 52
60 5 17z"/>
<path d="M8379 6881 c-30 -24 -22 -34 17 -19 41 15 82 3 96 -27 14 -32 28 -32
28 -1 0 55 -93 86 -141 47z"/>
<path d="M8360 6700 c-26 -26 -26 -66 0 -80 17 -9 25 -6 45 14 28 28 30 38 15
67 -14 24 -35 24 -60 -1z"/>
<path d="M9088 6599 c-32 -18 -20 -31 22 -24 34 6 43 3 65 -19 14 -14 25 -34
25 -46 0 -11 5 -20 10 -20 14 0 12 62 -3 81 -27 36 -84 49 -119 28z"/>
<path d="M8571 6508 c-33 -12 -21 -54 27 -95 l36 -32 -19 -21 c-47 -52 -108
-45 -146 16 -11 19 -24 32 -29 29 -14 -8 3 -51 33 -84 23 -27 34 -31 76 -31
43 0 54 -5 84 -35 27 -27 43 -35 71 -35 32 0 96 23 96 34 0 3 -27 4 -59 3 -77
-3 -103 18 -100 79 l3 43 42 -6 c63 -8 94 2 94 32 0 53 -148 126 -209 103z
m113 -51 c58 -33 60 -52 5 -43 -45 7 -79 30 -79 53 0 19 30 16 74 -10z"/>
<path d="M9036 6411 c-26 -29 -18 -75 15 -79 33 -4 51 18 47 60 -4 40 -35 49
-62 19z"/>
<path d="M7590 5360 c0 -5 5 -10 11 -10 5 0 7 -5 3 -12 -4 -6 -3 -8 4 -4 5 3
12 0 15 -6 2 -7 8 -10 12 -6 5 5 0 17 -10 28 -20 22 -35 26 -35 10z"/>
<path d="M5117 5168 c-31 -31 -31 -32 -2 -8 16 14 34 28 40 32 5 5 6 8 2 8 -4
0 -22 -15 -40 -32z"/>
<path d="M6138 5183 c7 -3 16 -2 19 1 4 3 -2 6 -13 5 -11 0 -14 -3 -6 -6z"/>
<path d="M6253 5173 c9 -2 23 -2 30 0 6 3 -1 5 -18 5 -16 0 -22 -2 -12 -5z"/>
<path d="M4680 5081 c0 -10 19 -25 25 -20 1 2 -3 10 -11 17 -8 7 -14 8 -14 3z"/>
<path d="M4844 4972 c16 -27 196 -46 211 -23 3 6 -16 7 -47 4 -49 -4 -107 4
-152 23 -13 5 -17 4 -12 -4z"/>
<path d="M5091 4464 c0 -11 3 -14 6 -6 3 7 2 16 -1 19 -3 4 -6 -2 -5 -13z"/>
<path d="M2795 4566 c-44 -18 -115 -47 -158 -65 -75 -32 -79 -33 -97 -16 -11
10 -20 14 -20 8 0 -5 9 -18 20 -28 19 -17 24 -16 142 33 160 66 218 92 218 97
0 11 -29 3 -105 -29z"/>
<path d="M9148 3820 c-47 -9 -67 -25 -89 -75 -35 -77 -17 -170 40 -199 55 -29
121 -16 164 32 28 31 44 140 26 176 -26 54 -78 78 -141 66z"/>
<path d="M10060 4165 c-9 -10 -9 -15 -1 -15 6 0 11 4 11 9 0 5 8 12 18 14 14
4 14 5 1 6 -9 0 -22 -6 -29 -14z"/>
<path d="M5162 3714 c-43 -30 -17 -104 37 -104 32 0 87 26 99 45 11 20 4 56
-12 67 -20 14 -101 8 -124 -8z"/>
<path d="M5458 3053 c29 -2 74 -2 100 0 26 2 2 3 -53 3 -55 0 -76 -1 -47 -3z"/>
<path d="M7218 3053 c12 -2 32 -2 45 0 12 2 2 4 -23 4 -25 0 -35 -2 -22 -4z"/>
<path d="M5090 3034 c52 -16 71 -18 50 -4 -10 6 4 10 45 13 39 2 25 4 -40 4
l-100 2 45 -15z"/>
<path d="M7528 3043 c6 -2 18 -2 25 0 6 3 1 5 -13 5 -14 0 -19 -2 -12 -5z"/>
<path d="M7627 3039 c18 -5 47 -5 70 0 34 8 31 9 -32 9 -59 0 -65 -1 -38 -9z"/>
<path d="M4978 3033 c12 -2 32 -2 45 0 12 2 2 4 -23 4 -25 0 -35 -2 -22 -4z"/>
<path d="M7368 3033 c7 -3 16 -2 19 1 4 3 -2 6 -13 5 -11 0 -14 -3 -6 -6z"/>
<path d="M7788 3033 c18 -2 45 -2 60 0 15 2 0 4 -33 4 -33 0 -45 -2 -27 -4z"/>
<path d="M4778 3023 c7 -3 16 -2 19 1 4 3 -2 6 -13 5 -11 0 -14 -3 -6 -6z"/>
<path d="M8013 3023 c9 -2 25 -2 35 0 9 3 1 5 -18 5 -19 0 -27 -2 -17 -5z"/>
<path d="M5022 3011 c-9 -5 -1 -10 25 -14 51 -9 98 -9 89 0 -4 4 -24 6 -44 5
-28 -2 -33 0 -22 7 12 9 10 11 -10 11 -14 0 -31 -4 -38 -9z"/>
<path d="M7208 3013 c6 -2 18 -2 25 0 6 3 1 5 -13 5 -14 0 -19 -2 -12 -5z"/>
<path d="M7425 3010 c-16 -7 -17 -9 -3 -9 9 -1 20 4 23 9 7 11 7 11 -20 0z"/>
<path d="M7586 3012 c-7 -12 48 -14 75 -3 20 8 17 10 -23 10 -26 1 -49 -3 -52
-7z"/>
<path d="M7768 3013 c7 -3 16 -2 19 1 4 3 -2 6 -13 5 -11 0 -14 -3 -6 -6z"/>
<path d="M7708 3003 c6 -2 18 -2 25 0 6 3 1 5 -13 5 -14 0 -19 -2 -12 -5z"/>
<path d="M5360 2980 c0 -5 5 -10 10 -10 6 0 10 5 10 10 0 6 -4 10 -10 10 -5 0
-10 -4 -10 -10z"/>
<path d="M3888 2963 c6 -2 18 -2 25 0 6 3 1 5 -13 5 -14 0 -19 -2 -12 -5z"/>
<path d="M4298 2963 c7 -3 16 -2 19 1 4 3 -2 6 -13 5 -11 0 -14 -3 -6 -6z"/>
<path d="M3828 2954 c6 -3 10 -9 8 -12 -5 -9 102 -8 110 1 3 3 -9 5 -27 4 -19
-1 -50 2 -69 6 -19 4 -29 4 -22 1z"/>
<path d="M4258 2943 c12 -2 32 -2 45 0 12 2 2 4 -23 4 -25 0 -35 -2 -22 -4z"/>
<path d="M3738 2933 c7 -3 16 -2 19 1 4 3 -2 6 -13 5 -11 0 -14 -3 -6 -6z"/>
<path d="M9098 2933 c7 -3 16 -2 19 1 4 3 -2 6 -13 5 -11 0 -14 -3 -6 -6z"/>
<path d="M9168 2933 c6 -2 18 -2 25 0 6 3 1 5 -13 5 -14 0 -19 -2 -12 -5z"/>
<path d="M3660 2900 c0 -5 5 -10 10 -10 6 0 10 5 10 10 0 6 -4 10 -10 10 -5 0
-10 -4 -10 -10z"/>
<path d="M3095 2870 l-30 -8 29 -1 c38 -1 27 -12 -13 -13 -17 -1 -31 -5 -31
-9 0 -4 16 -7 35 -6 19 1 35 5 35 9 0 4 12 9 28 11 l27 4 -30 2 c-30 3 -30 3
-5 11 20 6 21 8 5 8 -11 0 -33 -4 -50 -8z"/>
<path d="M8370 2870 c0 -5 5 -10 10 -10 6 0 10 5 10 10 0 6 -4 10 -10 10 -5 0
-10 -4 -10 -10z"/>
<path d="M3190 2860 c8 -5 22 -9 30 -9 10 0 8 3 -5 9 -27 12 -43 12 -25 0z"/>
<path d="M3293 2863 c9 -2 23 -2 30 0 6 3 -1 5 -18 5 -16 0 -22 -2 -12 -5z"/>
<path d="M2940 2852 c-34 -4 -34 -4 25 -23 73 -23 75 -23 75 -4 0 9 -10 15
-22 16 -22 1 -22 1 2 9 22 7 21 8 -10 7 -19 0 -51 -2 -70 -5z"/>
<path d="M3750 2835 c0 -8 4 -15 10 -15 5 0 7 7 4 15 -4 8 -8 15 -10 15 -2 0
-4 -7 -4 -15z"/>
<path d="M3780 2840 c0 -5 4 -10 9 -10 6 0 13 5 16 10 3 6 -1 10 -9 10 -9 0
-16 -4 -16 -10z"/>
<path d="M4830 2828 c0 -7 5 -20 10 -28 8 -12 10 -11 10 7 0 12 -4 25 -10 28
-5 3 -10 0 -10 -7z"/>
<path d="M2838 2823 c7 -3 16 -2 19 1 4 3 -2 6 -13 5 -11 0 -14 -3 -6 -6z"/>
<path d="M2766 2784 c-20 -19 -20 -35 -1 -60 14 -18 14 -17 9 13 -4 20 -2 39
6 48 16 20 6 19 -14 -1z"/>
<path d="M7491 2754 c0 -11 3 -14 6 -6 3 7 2 16 -1 19 -3 4 -6 -2 -5 -13z"/>
<path d="M2797 2679 c7 -7 15 -10 18 -7 3 3 -2 9 -12 12 -14 6 -15 5 -6 -5z"/>
<path d="M6347 2853 c-13 -12 -8 -73 6 -73 15 0 57 28 57 38 -1 23 -49 50 -63
35z"/>
<path d="M6340 2624 c0 -34 1 -35 31 -32 43 4 61 34 35 54 -11 8 -30 14 -43
14 -20 0 -23 -5 -23 -36z"/>
<path d="M6790 2802 c-53 -54 -57 -135 -9 -196 52 -66 149 2 149 105 0 63 -45
119 -96 119 -9 0 -28 -13 -44 -28z"/>
<path d="M7292 2741 c-18 -78 -16 -93 10 -89 20 3 22 8 20 45 -2 23 -7 54 -11
69 -6 25 -8 22 -19 -25z"/>
<path d="M7710 2786 c0 -13 -3 -38 -6 -55 -6 -29 -5 -31 23 -31 54 0 83 59 45
93 -28 26 -62 22 -62 -7z"/>
<path d="M5040 2755 c0 -11 -3 -44 -6 -72 -7 -52 -7 -53 20 -53 21 0 26 4 22
18 -3 9 -8 35 -12 57 -8 49 -23 80 -24 50z"/>
<path d="M8136 2709 c-3 -34 -6 -89 -6 -122 l0 -59 28 7 c48 11 84 57 90 114
4 47 2 53 -31 86 -19 19 -44 35 -55 35 -16 0 -20 -9 -26 -61z"/>
<path d="M4555 2689 c16 -169 16 -169 34 -169 29 0 68 37 81 75 24 73 -13 143
-81 152 l-40 6 6 -64z"/>
<path d="M3596 2551 c-35 -39 12 -94 60 -72 16 7 24 19 24 36 0 51 -51 73 -84
36z"/>
<path d="M3950 6738 c-11 -19 -34 -37 -52 -44 -45 -15 -46 -37 -4 -64 25 -15
36 -29 36 -45 0 -31 27 -58 46 -47 8 5 23 21 32 36 10 16 32 33 52 40 48 15
49 54 3 76 -17 8 -38 30 -47 48 -20 41 -41 41 -66 0z m50 -27 c7 -18 24 -34
41 -40 38 -13 37 -30 -2 -38 -20 -4 -38 -16 -48 -34 -21 -37 -27 -36 -41 6 -6
19 -20 37 -31 40 -27 9 -24 19 11 32 18 7 32 21 36 37 8 34 19 33 34 -3z"/>
<path d="M3482 6598 c-7 -7 -12 -21 -12 -32 0 -11 -9 -30 -21 -42 -25 -27 -18
-44 18 -44 15 0 37 -9 49 -21 26 -25 44 -18 44 17 0 13 9 33 21 45 25 25 18
49 -14 49 -14 0 -35 9 -49 20 -19 14 -28 16 -36 8z m69 -71 c-6 -6 -11 -19
-11 -29 0 -19 -15 -24 -25 -8 -3 6 -14 10 -24 10 -17 0 -18 2 -2 33 16 32 17
33 44 19 21 -10 26 -17 18 -25z"/>
<path d="M3114 6270 c-153 -31 -295 -181 -325 -344 -31 -169 69 -355 234 -436
51 -25 83 -33 144 -37 l80 -6 9 -37 c7 -24 7 -42 0 -52 -10 -17 4 -82 79 -368
40 -149 54 -177 107 -203 63 -31 128 14 128 90 0 15 -9 60 -20 98 -10 39 -35
131 -55 205 -46 172 -63 220 -80 220 -18 0 -22 7 -30 50 -6 32 -4 36 25 48 17
8 55 36 85 64 99 91 151 241 127 369 -45 240 -265 387 -508 339z m201 -44
c136 -36 225 -128 261 -268 32 -125 -6 -265 -96 -356 -62 -62 -100 -76 -214
-80 -148 -6 -231 23 -317 109 -70 70 -99 139 -99 237 1 99 59 220 123 253 18
10 16 6 -7 -17 -40 -41 -86 -143 -93 -207 -14 -136 62 -271 187 -330 36 -18
64 -22 135 -22 79 0 97 4 148 29 70 34 123 85 157 152 21 41 25 63 25 139 0
75 -4 98 -23 135 -33 63 -94 123 -160 156 -50 26 -68 29 -147 29 -77 0 -98 -4
-142 -26 -29 -14 -53 -24 -53 -22 0 10 30 33 42 33 10 0 10 2 -1 9 -11 7 -9
12 10 22 73 39 176 49 264 25z m2 -86 c73 -32 121 -79 155 -148 44 -88 44
-166 0 -255 -110 -224 -434 -222 -544 2 -32 64 -32 197 -1 256 30 58 89 114
147 141 67 31 180 33 243 4z m97 -797 c32 -109 96 -376 94 -397 -3 -37 -19
-49 -51 -37 -21 8 -30 26 -54 103 -17 51 -36 116 -43 143 -24 97 -43 150 -59
162 -14 10 -11 14 19 27 48 21 87 20 94 -1z"/>
<path d="M3068 6193 c7 -3 16 -2 19 1 4 3 -2 6 -13 5 -11 0 -14 -3 -6 -6z"/>
<path d="M3748 6203 c-22 -5 -23 -26 -3 -43 8 -7 15 -21 15 -31 0 -25 18 -33
38 -17 9 8 29 19 44 26 24 10 26 13 16 40 -10 25 -16 29 -52 29 -23 0 -49 -2
-58 -4z m81 -27 c10 -11 8 -16 -8 -21 -12 -3 -21 -11 -21 -16 0 -21 -19 -7
-29 21 -10 29 -9 30 18 30 16 0 34 -6 40 -14z"/>
<path d="M3896 5981 c-3 -5 0 -11 7 -14 8 -3 14 1 14 9 0 16 -13 19 -21 5z"/>
<path d="M3754 5917 c4 -20 1 -36 -8 -46 -13 -15 -12 -18 15 -33 29 -17 39
-12 18 9 -6 6 -12 30 -13 52 l-2 41 32 -6 c18 -3 39 -2 47 3 10 5 -4 8 -40 9
l-55 2 6 -31z"/>
<path d="M3911 5914 c-1 -29 5 -46 19 -59 30 -27 25 -43 -17 -48 -34 -4 -33
-4 6 -3 52 1 60 13 29 46 -12 13 -25 42 -29 64 l-6 41 -2 -41z"/>
<path d="M4243 5911 c-2 -10 -16 -24 -29 -30 -28 -12 -31 -29 -6 -38 9 -3 27
-17 39 -32 l23 -26 24 25 c14 14 32 31 40 38 19 15 10 42 -15 42 -10 0 -24 9
-31 20 -16 25 -38 26 -45 1z m65 -48 c2 -1 -5 -10 -16 -21 -19 -19 -19 -19
-39 2 -17 19 -18 23 -4 38 14 17 16 17 35 0 12 -9 23 -18 24 -19z"/>
<path d="M9805 5886 c-17 -12 -17 -14 5 -44 26 -35 45 -41 54 -16 9 24 7 28
-9 14 -13 -11 -18 -10 -30 6 -8 10 -15 22 -15 26 0 7 46 2 78 -8 14 -4 29 23
18 33 -3 4 -17 0 -31 -7 -18 -10 -28 -10 -38 -2 -10 9 -18 8 -32 -2z"/>
<path d="M10317 5830 c-41 -36 -54 -38 -53 -9 1 12 -5 24 -13 27 -10 3 -13 -2
-9 -22 5 -24 3 -26 -33 -26 -46 0 -51 -17 -20 -64 l20 -30 -25 -42 c-14 -24
-22 -48 -19 -55 4 -6 27 -9 56 -7 45 3 50 0 77 -31 36 -43 56 -37 73 20 11 34
20 44 55 59 56 24 63 39 32 64 -14 12 -35 29 -47 38 -14 12 -21 29 -21 53 0
53 -30 64 -73 25z m51 -44 c3 -30 10 -41 43 -63 21 -14 39 -29 39 -34 0 -4
-16 -13 -36 -19 -28 -10 -40 -21 -54 -56 -11 -24 -22 -44 -25 -44 -4 0 -18 14
-32 30 -23 28 -29 30 -69 24 -24 -3 -44 -4 -44 -1 0 3 9 22 21 41 19 32 19 37
5 65 -25 47 -21 54 25 48 35 -5 45 -1 72 24 18 15 37 27 42 25 6 -1 11 -19 13
-40z"/>
<path d="M3835 5780 c-22 -25 -32 -25 -38 -2 -4 13 -5 12 -6 -5 -2 -35 15 -36
51 -4 18 17 28 31 22 31 -6 0 -19 -9 -29 -20z"/>
<path d="M4510 5661 c0 -5 7 -12 16 -15 24 -9 27 -7 10 9 -17 17 -26 19 -26 6z"/>
<path d="M2700 5449 c-41 -18 -46 -19 -83 -4 -50 20 -61 12 -54 -40 5 -36 3
-46 -18 -65 -38 -36 -32 -56 19 -69 34 -8 49 -19 70 -51 31 -47 44 -47 67 -2
23 45 39 62 58 62 10 0 26 6 37 14 18 14 18 16 -12 48 -27 28 -30 39 -27 74 3
23 1 44 -4 47 -5 3 -29 -3 -53 -14z m-36 -35 c17 3 40 8 52 11 18 6 20 3 16
-30 -3 -28 1 -42 19 -61 25 -27 25 -26 -16 -39 -19 -7 -35 -22 -44 -43 -18
-40 -26 -40 -46 -2 -10 20 -28 33 -55 41 l-40 12 20 22 c13 14 20 35 20 63 0
41 1 42 21 31 12 -6 36 -9 53 -5z"/>
<path d="M3013 5323 c-18 -20 -33 -40 -33 -45 0 -10 64 -78 73 -78 3 0 24 18
46 39 44 43 45 61 5 80 -13 6 -27 18 -30 26 -9 24 -26 18 -61 -22z m93 -23
c22 0 17 -13 -20 -48 -37 -34 -46 -39 -46 -21 0 6 -10 19 -22 28 l-21 18 28
36 29 35 19 -24 c10 -13 25 -24 33 -24z"/>
<path d="M10295 5327 c-5 -12 -2 -24 7 -34 14 -13 16 -13 21 1 4 9 2 16 -3 16
-5 0 -10 8 -13 18 -4 16 -4 16 -12 -1z"/>
<path d="M10485 5006 c-39 -18 -75 -57 -120 -131 -27 -45 -34 -66 -29 -87 4
-22 -2 -39 -29 -76 -76 -104 -86 -159 -39 -210 31 -34 98 -58 134 -49 33 9 61
37 130 131 32 44 73 97 91 117 18 20 46 55 62 79 57 82 28 172 -68 219 -50 24
-89 26 -132 7z m125 -31 c45 -23 70 -62 70 -110 0 -33 -9 -54 -41 -98 -25 -36
-47 -57 -60 -57 -26 0 -24 22 5 49 39 37 60 89 47 117 -14 32 -68 64 -107 64
-36 0 -64 -24 -100 -86 -19 -32 -24 -48 -16 -56 8 -8 -1 -28 -32 -72 -55 -77
-88 -143 -84 -164 3 -12 9 -7 23 18 10 19 42 71 72 114 41 60 53 86 50 105 -4
19 4 37 30 69 42 51 80 56 119 17 32 -32 26 -53 -32 -118 -60 -68 -184 -243
-184 -261 0 -26 -36 -18 -69 15 -17 17 -31 41 -31 54 0 13 25 60 55 105 44 67
52 85 43 99 -7 11 -8 27 -2 44 13 38 83 132 113 150 33 21 93 21 131 2z m-50
-294 c0 -23 -130 -185 -153 -189 -14 -3 -11 6 15 45 108 164 138 195 138 144z"/>
<path d="M10536 4857 c3 -8 -5 -23 -19 -33 -16 -13 -26 -34 -30 -64 -6 -41 -6
-43 8 -26 8 11 15 26 15 34 0 8 14 27 31 43 32 30 34 52 6 57 -11 2 -15 -1
-11 -11z"/>
<path d="M3639 4664 c-10 -13 -10 -17 1 -24 17 -10 30 -4 30 15 0 22 -16 26
-31 9z"/>
<path d="M10607 4373 c-27 -27 18 -71 49 -48 18 13 18 14 0 34 -19 21 -37 26
-49 14z"/>
<path d="M2275 4179 c-9 -17 -31 -37 -50 -45 -49 -20 -52 -33 -16 -63 21 -18
33 -38 38 -63 6 -42 17 -47 45 -21 16 14 24 15 52 5 53 -19 59 -17 51 27 -6
34 -3 42 21 64 32 30 26 43 -24 56 -25 7 -43 21 -55 41 -23 38 -42 38 -62 -1z
m50 -17 c5 -19 44 -42 70 -42 21 0 19 -12 -5 -33 -11 -9 -20 -29 -20 -45 0
-26 -2 -28 -34 -24 -18 2 -37 -1 -40 -7 -12 -19 -24 -12 -31 19 -4 17 -18 38
-31 46 -32 22 -30 31 10 48 19 8 39 24 46 35 13 26 27 27 35 3z"/>
<path d="M2482 3806 c7 -8 15 -12 17 -11 5 6 -10 25 -20 25 -5 0 -4 -6 3 -14z"/>
<path d="M2435 3780 c-14 -15 -31 -20 -72 -20 -29 0 -53 -3 -53 -7 0 -5 24 -6
54 -5 42 3 59 9 77 28 12 13 20 24 17 24 -3 0 -13 -9 -23 -20z"/>
<path d="M2501 3757 c-1 -22 7 -32 34 -48 42 -25 43 -34 8 -53 -17 -9 -22 -15
-12 -16 8 0 25 10 37 23 l22 24 -37 24 c-20 13 -40 35 -44 49 l-7 25 -1 -28z"/>
<path d="M2351 3664 c0 -11 3 -14 6 -6 3 7 2 16 -1 19 -3 4 -6 -2 -5 -13z"/>
<path d="M2502 3580 c0 -14 2 -19 5 -12 2 6 2 18 0 25 -3 6 -5 1 -5 -13z"/>
<path d="M2467 3556 c15 -13 32 -22 37 -18 5 3 0 9 -11 13 -12 4 -24 12 -28
18 -3 6 -11 11 -16 11 -6 0 2 -11 18 -24z"/>
<path d="M2515 3310 c-3 -11 -12 -20 -19 -20 -8 0 -19 -6 -25 -13 -8 -10 -5
-18 12 -34 12 -11 27 -29 34 -39 12 -19 13 -18 31 2 10 12 28 25 40 28 29 10
28 34 -3 48 -13 6 -27 19 -30 30 -8 24 -32 23 -40 -2z m45 -62 c-11 -4 -20
-12 -20 -19 0 -6 -9 -1 -19 12 -18 22 -18 25 -4 42 16 16 18 16 40 -5 23 -22
24 -22 3 -30z"/>
<path d="M2646 3122 c-21 -24 -4 -52 21 -36 10 6 19 18 21 26 4 23 -24 29 -42
10z m24 -12 c0 -5 -4 -10 -10 -10 -5 0 -10 5 -10 10 0 6 5 10 10 10 6 0 10 -4
10 -10z"/>
<path d="M5634 1895 c-4 -9 0 -23 8 -31 20 -20 50 -7 46 20 -4 26 -45 35 -54
11z"/>
</g>
</svg>
